<?xml version="1.0" encoding="UTF-8"?>
<svg xmlns="http://www.w3.org/2000/svg" id="flowchartSvg" width="1000" height="1450" viewBox="0 0 1000 1450">
  <defs>
    <marker id="arrowhead" markerWidth="10" markerHeight="7" refX="10" refY="3.5" orient="auto">
      <polygon points="0 0, 10 3.5, 0 7" fill="#666"/>
    </marker>
    <marker id="arrowblue" markerWidth="10" markerHeight="7" refX="10" refY="3.5" orient="auto">
      <polygon points="0 0, 10 3.5, 0 7" fill="#58a6ff"/>
    </marker>
  </defs>
  <g id="zoomGroup">
    <line x1="500" y1="80" x2="220" y2="153" stroke="#555" stroke-width="2" marker-end="url(#arrowhead)"/>
    <line x1="220" y1="207" x2="220" y2="285" stroke="#4C72B0" stroke-width="2" marker-end="url(#arrowhead)"/>
    <line x1="220" y1="207" x2="220" y2="385" stroke="#4C72B0" stroke-width="2" marker-end="url(#arrowhead)"/>
    <line x1="220" y1="207" x2="220" y2="485" stroke="#4C72B0" stroke-width="2" marker-end="url(#arrowhead)"/>
    <line x1="220" y1="207" x2="220" y2="585" stroke="#4C72B0" stroke-width="2" marker-end="url(#arrowhead)"/>
    <line x1="220" y1="207" x2="220" y2="685" stroke="#4C72B0" stroke-width="2" marker-end="url(#arrowhead)"/>
    <line x1="220" y1="207" x2="220" y2="785" stroke="#4C72B0" stroke-width="2" marker-end="url(#arrowhead)"/>
    <line x1="220" y1="207" x2="220" y2="885" stroke="#4C72B0" stroke-width="2" marker-end="url(#arrowhead)"/>
    <line x1="500" y1="80" x2="500" y2="153" stroke="#555" stroke-width="2" marker-end="url(#arrowhead)"/>
    <line x1="500" y1="207" x2="500" y2="285" stroke="#DD8452" stroke-width="2" marker-end="url(#arrowhead)"/>
    <line x1="500" y1="207" x2="500" y2="385" stroke="#DD8452" stroke-width="2" marker-end="url(#arrowhead)"/>
    <line x1="500" y1="207" x2="500" y2="485" stroke="#DD8452" stroke-width="2" marker-end="url(#arrowhead)"/>
    <line x1="500" y1="207" x2="500" y2="585" stroke="#DD8452" stroke-width="2" marker-end="url(#arrowhead)"/>
    <line x1="500" y1="207" x2="500" y2="685" stroke="#DD8452" stroke-width="2" marker-end="url(#arrowhead)"/>
    <line x1="500" y1="207" x2="500" y2="785" stroke="#DD8452" stroke-width="2" marker-end="url(#arrowhead)"/>
    <line x1="500" y1="207" x2="500" y2="885" stroke="#DD8452" stroke-width="2" marker-end="url(#arrowhead)"/>
    <line x1="500" y1="207" x2="500" y2="985" stroke="#DD8452" stroke-width="2" marker-end="url(#arrowhead)"/>
    <line x1="500" y1="80" x2="780" y2="153" stroke="#555" stroke-width="2" marker-end="url(#arrowhead)"/>
    <line x1="780" y1="207" x2="780" y2="285" stroke="#55A868" stroke-width="2" marker-end="url(#arrowhead)"/>
    <line x1="780" y1="207" x2="780" y2="385" stroke="#55A868" stroke-width="2" marker-end="url(#arrowhead)"/>
    <line x1="780" y1="207" x2="780" y2="485" stroke="#55A868" stroke-width="2" marker-end="url(#arrowhead)"/>
    <line x1="780" y1="207" x2="780" y2="585" stroke="#55A868" stroke-width="2" marker-end="url(#arrowhead)"/>
    <line x1="780" y1="207" x2="780" y2="685" stroke="#55A868" stroke-width="2" marker-end="url(#arrowhead)"/>
    <line x1="780" y1="207" x2="780" y2="785" stroke="#55A868" stroke-width="2" marker-end="url(#arrowhead)"/>
    <line x1="220" y1="935" x2="500" y2="1143" stroke="#555" stroke-width="2" marker-end="url(#arrowhead)"/>
    <line x1="500" y1="1035" x2="500" y2="1143" stroke="#555" stroke-width="2" marker-end="url(#arrowhead)"/>
    <line x1="780" y1="835" x2="500" y2="1143" stroke="#555" stroke-width="2" marker-end="url(#arrowhead)"/>
    <line x1="500" y1="1197" x2="500" y2="1243" stroke="#555" stroke-width="2" marker-end="url(#arrowhead)"/>
    <g class="node-box" onclick="showPopup('RQ')">
      <rect x="200" y="20" width="600" height="60" rx="10" ry="10" fill="#2C3E50" stroke="#333" stroke-width="1.5"/>
      <text x="500" y="47.2" text-anchor="middle" fill="white" font-size="13" font-weight="bold" font-family="Segoe UI, Arial, sans-serif">How do spatial inequalities in PM2.5 exposure across California counties vary wi</text>
    </g>
    <g class="node-box" onclick="showPopup('obj_1')">
      <rect x="100" y="153" width="240" height="55" rx="10" ry="10" fill="#4C72B0" stroke="#333" stroke-width="1.5"/>
      <text x="220" y="170.4" text-anchor="middle" fill="white" font-size="11" font-weight="bold" font-family="Segoe UI, Arial, sans-serif">Obj 1: Assess how PM2.5 exposure varies</text>
      <text x="220" y="184.4" text-anchor="middle" fill="white" font-size="11" font-weight="bold" font-family="Segoe UI, Arial, sans-serif">acros</text>
    </g>
    <g class="node-box" onclick="showPopup('obj1_s1')">
      <polygon points="120,285 335,285 320,335 105,335" fill="#85e29b" stroke="#28a745" stroke-width="2"/>
      <text x="220" y="307.5" text-anchor="middle" fill="#222" font-size="10" font-weight="bold" font-family="Segoe UI, Arial, sans-serif">[OK] S1.1: row_filter (DataAgent)</text>
    </g>
    <g class="node-box" onclick="showPopup('obj1_s2')">
      <polygon points="120,385 335,385 320,435 105,435" fill="#85e29b" stroke="#28a745" stroke-width="2"/>
      <text x="220" y="407.5" text-anchor="middle" fill="#222" font-size="10" font-weight="bold" font-family="Segoe UI, Arial, sans-serif">[OK] S1.2: derive_column (DataAgent)</text>
    </g>
    <g class="node-box" onclick="showPopup('obj1_s3')">
      <polygon points="120,485 335,485 320,535 105,535" fill="#85e29b" stroke="#28a745" stroke-width="2"/>
      <text x="220" y="507.5" text-anchor="middle" fill="#222" font-size="10" font-weight="bold" font-family="Segoe UI, Arial, sans-serif">[OK] S1.3: groupby_aggregate_mean (DataAgent)</text>
    </g>
    <g class="node-box" onclick="showPopup('obj1_s4')">
      <polygon points="120,585 335,585 320,635 105,635" fill="#85e29b" stroke="#28a745" stroke-width="2"/>
      <text x="220" y="607.5" text-anchor="middle" fill="#222" font-size="10" font-weight="bold" font-family="Segoe UI, Arial, sans-serif">[OK] S1.4: attribute_join (DataAgent)</text>
    </g>
    <g class="node-box" onclick="showPopup('obj1_s5')">
      <polygon points="120,685 335,685 320,735 105,735" fill="#85e29b" stroke="#28a745" stroke-width="2"/>
      <text x="220" y="707.5" text-anchor="middle" fill="#222" font-size="10" font-weight="bold" font-family="Segoe UI, Arial, sans-serif">[OK] S1.5: derive_column (DataAgent)</text>
    </g>
    <g class="node-box" onclick="showPopup('obj1_s6')">
      <polygon points="120,785 335,785 320,835 105,835" fill="#85e29b" stroke="#28a745" stroke-width="2"/>
      <text x="220" y="801.0" text-anchor="middle" fill="#222" font-size="10" font-weight="bold" font-family="Segoe UI, Arial, sans-serif">[OK] S1.6: spatial_weights_queen_</text>
      <text x="220" y="814.0" text-anchor="middle" fill="#222" font-size="10" font-weight="bold" font-family="Segoe UI, Arial, sans-serif">(ModelingAgent)</text>
    </g>
    <g class="node-box" onclick="showPopup('obj1_s7')">
      <polygon points="120,885 335,885 320,935 105,935" fill="#85e29b" stroke="#28a745" stroke-width="2"/>
      <text x="220" y="907.5" text-anchor="middle" fill="#222" font-size="10" font-weight="bold" font-family="Segoe UI, Arial, sans-serif">[OK] S1.7: global_morans_I (ModelingAgent)</text>
    </g>
    <g class="node-box" onclick="showPopup('obj_2')">
      <rect x="380" y="153" width="240" height="55" rx="10" ry="10" fill="#DD8452" stroke="#333" stroke-width="1.5"/>
      <text x="500" y="170.4" text-anchor="middle" fill="white" font-size="11" font-weight="bold" font-family="Segoe UI, Arial, sans-serif">Obj 2: Estimate the county-level</text>
      <text x="500" y="184.4" text-anchor="middle" fill="white" font-size="11" font-weight="bold" font-family="Segoe UI, Arial, sans-serif">association</text>
    </g>
    <g class="node-box" onclick="showPopup('obj2_s1')">
      <polygon points="400,285 615,285 600,335 385,335" fill="#85e29b" stroke="#28a745" stroke-width="2"/>
      <text x="500" y="307.5" text-anchor="middle" fill="#222" font-size="10" font-weight="bold" font-family="Segoe UI, Arial, sans-serif">[OK] S2.1: row_filter (DataAgent)</text>
    </g>
    <g class="node-box" onclick="showPopup('obj2_s2')">
      <polygon points="400,385 615,385 600,435 385,435" fill="#85e29b" stroke="#28a745" stroke-width="2"/>
      <text x="500" y="407.5" text-anchor="middle" fill="#222" font-size="10" font-weight="bold" font-family="Segoe UI, Arial, sans-serif">[OK] S2.2: derive_column (DataAgent)</text>
    </g>
    <g class="node-box" onclick="showPopup('obj2_s3')">
      <polygon points="400,485 615,485 600,535 385,535" fill="#85e29b" stroke="#28a745" stroke-width="2"/>
      <text x="500" y="507.5" text-anchor="middle" fill="#222" font-size="10" font-weight="bold" font-family="Segoe UI, Arial, sans-serif">[OK] S2.3: attribute_join (DataAgent)</text>
    </g>
    <g class="node-box" onclick="showPopup('obj2_s4')">
      <polygon points="400,585 615,585 600,635 385,635" fill="#85e29b" stroke="#28a745" stroke-width="2"/>
      <text x="500" y="601.0" text-anchor="middle" fill="#222" font-size="10" font-weight="bold" font-family="Segoe UI, Arial, sans-serif">[OK] S2.4: ordinary_least_squares</text>
      <text x="500" y="614.0" text-anchor="middle" fill="#222" font-size="10" font-weight="bold" font-family="Segoe UI, Arial, sans-serif">(ModelingAgent)</text>
    </g>
    <g class="node-box" onclick="showPopup('obj2_s5')">
      <polygon points="400,685 615,685 600,735 385,735" fill="#85e29b" stroke="#28a745" stroke-width="2"/>
      <text x="500" y="707.5" text-anchor="middle" fill="#222" font-size="10" font-weight="bold" font-family="Segoe UI, Arial, sans-serif">[OK] S2.5: global_morans_I (ModelingAgent)</text>
    </g>
    <g class="node-box" onclick="showPopup('obj2_s6')">
      <polygon points="400,785 615,785 600,835 385,835" fill="#85e29b" stroke="#28a745" stroke-width="2"/>
      <text x="500" y="801.0" text-anchor="middle" fill="#222" font-size="10" font-weight="bold" font-family="Segoe UI, Arial, sans-serif">[OK] S2.6: spatial_lag_model_maxi</text>
      <text x="500" y="814.0" text-anchor="middle" fill="#222" font-size="10" font-weight="bold" font-family="Segoe UI, Arial, sans-serif">(ModelingAgent)</text>
    </g>
    <g class="node-box" onclick="showPopup('obj2_s7')">
      <polygon points="400,885 615,885 600,935 385,935" fill="#85e29b" stroke="#28a745" stroke-width="2"/>
      <text x="500" y="907.5" text-anchor="middle" fill="#222" font-size="10" font-weight="bold" font-family="Segoe UI, Arial, sans-serif">[OK] S2.7: spatial_weights_knn (ModelingAgent)</text>
    </g>
    <g class="node-box" onclick="showPopup('obj2_s8')">
      <polygon points="400,985 615,985 600,1035 385,1035" fill="#85e29b" stroke="#28a745" stroke-width="2"/>
      <text x="500" y="1001.0" text-anchor="middle" fill="#222" font-size="10" font-weight="bold" font-family="Segoe UI, Arial, sans-serif">[OK] S2.8: spatial_error_model_ma</text>
      <text x="500" y="1014.0" text-anchor="middle" fill="#222" font-size="10" font-weight="bold" font-family="Segoe UI, Arial, sans-serif">(ModelingAgent)</text>
    </g>
    <g class="node-box" onclick="showPopup('obj_3')">
      <rect x="660" y="153" width="240" height="55" rx="10" ry="10" fill="#55A868" stroke="#333" stroke-width="1.5"/>
      <text x="780" y="170.4" text-anchor="middle" fill="white" font-size="11" font-weight="bold" font-family="Segoe UI, Arial, sans-serif">Obj 3: Test whether the 2019</text>
      <text x="780" y="184.4" text-anchor="middle" fill="white" font-size="11" font-weight="bold" font-family="Segoe UI, Arial, sans-serif">PM2.5–income ine</text>
    </g>
    <g class="node-box" onclick="showPopup('obj3_s1')">
      <polygon points="680,285 895,285 880,335 665,335" fill="#85e29b" stroke="#28a745" stroke-width="2"/>
      <text x="780" y="307.5" text-anchor="middle" fill="#222" font-size="10" font-weight="bold" font-family="Segoe UI, Arial, sans-serif">[OK] S3.1: derive_column (DataAgent)</text>
    </g>
    <g class="node-box" onclick="showPopup('obj3_s2')">
      <polygon points="680,385 895,385 880,435 665,435" fill="#85e29b" stroke="#28a745" stroke-width="2"/>
      <text x="780" y="407.5" text-anchor="middle" fill="#222" font-size="10" font-weight="bold" font-family="Segoe UI, Arial, sans-serif">[OK] S3.2: attribute_join (DataAgent)</text>
    </g>
    <g class="node-box" onclick="showPopup('obj3_s3')">
      <polygon points="680,485 895,485 880,535 665,535" fill="#85e29b" stroke="#28a745" stroke-width="2"/>
      <text x="780" y="507.5" text-anchor="middle" fill="#222" font-size="10" font-weight="bold" font-family="Segoe UI, Arial, sans-serif">[OK] S3.3: derive_column (DataAgent)</text>
    </g>
    <g class="node-box" onclick="showPopup('obj3_s4')">
      <polygon points="680,585 895,585 880,635 665,635" fill="#85e29b" stroke="#28a745" stroke-width="2"/>
      <text x="780" y="601.0" text-anchor="middle" fill="#222" font-size="10" font-weight="bold" font-family="Segoe UI, Arial, sans-serif">[OK] S3.4: ordinary_least_squares</text>
      <text x="780" y="614.0" text-anchor="middle" fill="#222" font-size="10" font-weight="bold" font-family="Segoe UI, Arial, sans-serif">(ModelingAgent)</text>
    </g>
    <g class="node-box" onclick="showPopup('obj3_s5')">
      <polygon points="680,685 895,685 880,735 665,735" fill="#85e29b" stroke="#28a745" stroke-width="2"/>
      <text x="780" y="701.0" text-anchor="middle" fill="#222" font-size="10" font-weight="bold" font-family="Segoe UI, Arial, sans-serif">[OK] S3.5: spatial_lag_model_maxi</text>
      <text x="780" y="714.0" text-anchor="middle" fill="#222" font-size="10" font-weight="bold" font-family="Segoe UI, Arial, sans-serif">(ModelingAgent)</text>
    </g>
    <g class="node-box" onclick="showPopup('obj3_s6')">
      <polygon points="680,785 895,785 880,835 665,835" fill="#85e29b" stroke="#28a745" stroke-width="2"/>
      <text x="780" y="801.0" text-anchor="middle" fill="#222" font-size="10" font-weight="bold" font-family="Segoe UI, Arial, sans-serif">[OK] S3.6: groupwise_spearman_ran</text>
      <text x="780" y="814.0" text-anchor="middle" fill="#222" font-size="10" font-weight="bold" font-family="Segoe UI, Arial, sans-serif">(ModelingAgent)</text>
    </g>
    <g class="node-box" onclick="showPopup('result_collation')">
      <rect x="350" y="1143" width="300" height="55" rx="10" ry="10" fill="#D4A017" stroke="#28a745" stroke-width="1.5"/>
      <text x="500" y="1167.3" text-anchor="middle" fill="white" font-size="12" font-weight="bold" font-family="Segoe UI, Arial, sans-serif">Result Collation [OK]</text>
    </g>
    <g class="node-box" onclick="showPopup('manuscript')">
      <rect x="350" y="1243" width="300" height="55" rx="10" ry="10" fill="#7B2D8E" stroke="#28a745" stroke-width="1.5"/>
      <text x="500" y="1267.3" text-anchor="middle" fill="white" font-size="12" font-weight="bold" font-family="Segoe UI, Arial, sans-serif">Manuscript [OK]</text>
    </g>
  </g>
</svg>