<?xml version="1.0" encoding="UTF-8" standalone="no"?>
<svg xmlns="http://www.w3.org/2000/svg" viewBox="0.0 -60.0 6385.0 846.0" font-family="Segoe UI, Arial, sans-serif">
  <text x="3192.5" y="-25.0" text-anchor="middle" font-size="24" font-weight="bold" fill="#2C3E50">Influence of Proximity to Hazardous Waste Facilities on Asthma Prevalence in North Carolina</text>
  <g transform="translate(20.0,-50.0)">
    <rect x="0" y="0" width="900" height="40" rx="6" fill="#fff" stroke="#bbb"/>
    <ellipse cx="25" cy="20" rx="14" ry="9" fill="#6BA3D6" stroke="#2F74B5"/>
    <text x="48" y="24" font-size="14" fill="#333">Input data</text>
    <rect x="160" y="11" width="28" height="18" rx="3" fill="#F5D576" stroke="#C4A030"/>
    <text x="195" y="24" font-size="14" fill="#333">Operation / tool</text>
    <ellipse cx="345" cy="20" rx="14" ry="9" fill="#6BB56A" stroke="#3D8B3D"/>
    <text x="368" y="24" font-size="14" fill="#333">Output data</text>
    <line x1="500" y1="20" x2="540" y2="20" stroke="#3D8B3D" stroke-width="2" stroke-dasharray="6,3"/>
    <text x="548" y="24" font-size="14" fill="#333">Reused (within objective)</text>
    <line x1="740" y1="20" x2="780" y2="20" stroke="#E67E22" stroke-width="2" stroke-dasharray="8,4"/>
    <text x="788" y="24" font-size="14" fill="#333">Reused (cross objective)</text>
  </g>
    <defs>
      <marker id="mb_arrow" markerWidth="14" markerHeight="12" refX="13" refY="6" orient="auto" markerUnits="userSpaceOnUse">
        <polygon points="0 0,14 6,0 12" fill="#555"/>
      </marker>
      <marker id="mb_arrow_green" markerWidth="14" markerHeight="12" refX="13" refY="6" orient="auto" markerUnits="userSpaceOnUse">
        <polygon points="0 0,14 6,0 12" fill="#3D8B3D"/>
      </marker>
      <marker id="mb_arrow_orange" markerWidth="14" markerHeight="12" refX="13" refY="6" orient="auto" markerUnits="userSpaceOnUse">
        <polygon points="0 0,14 6,0 12" fill="#E67E22"/>
      </marker>
    </defs>
    <g id="zoomGroup">
    <rect x="0" y="55" width="6385" height="308" fill="#edf2f9" rx="6"/>
    <g>
      <rect x="220.0" y="188.0" width="120" height="42" rx="6" fill="#34495E" stroke="#2C3E50" stroke-width="2"/>
      <text x="280.0" y="213.0" text-anchor="middle" font-size="14" font-weight="bold" font-family="Segoe UI, Arial, sans-serif" fill="white">Obj 1</text>
    </g>
    <rect x="0" y="403" width="6385" height="308" fill="#fdf5e8" rx="6"/>
    <g>
      <rect x="220.0" y="536.0" width="120" height="42" rx="6" fill="#34495E" stroke="#2C3E50" stroke-width="2"/>
      <text x="280.0" y="561.0" text-anchor="middle" font-size="14" font-weight="bold" font-family="Segoe UI, Arial, sans-serif" fill="white">Obj 2</text>
    </g>
    <g>
      <rect x="10.0" y="355.0" width="130" height="56" rx="8" fill="#2C3E50" stroke="#1A252F" stroke-width="2"/>
      <text x="75.0" y="387.0" text-anchor="middle" font-size="15" font-weight="bold" font-family="Segoe UI, Arial, sans-serif" fill="white">Research Question</text>
    </g>
    <path d="M140.0,383.0 C180.0,383.0 180.0,209.0 220.0,209.0" fill="none" stroke="#555" stroke-width="2" marker-end="url(#mb_arrow)"/>
    <path d="M140.0,383.0 C180.0,383.0 180.0,557.0 220.0,557.0" fill="none" stroke="#555" stroke-width="2" marker-end="url(#mb_arrow)"/>
    <line x1="340.0" y1="209.0" x2="380" y2="209.0" stroke="#555" stroke-width="2" marker-end="url(#mb_arrow)"/>
    <line x1="340.0" y1="557.0" x2="380" y2="557.0" stroke="#555" stroke-width="2" marker-end="url(#mb_arrow)"/>
    <line x1="550" y1="209.0" x2="610.0" y2="209.0" stroke="#555" stroke-width="2" marker-end="url(#mb_arrow)"/>
    <line x1="790.0" y1="209.0" x2="850.0" y2="209.0" stroke="#555" stroke-width="2" marker-end="url(#mb_arrow)"/>
    <line x1="1250.0" y1="209.0" x2="1310.0" y2="209.0" stroke="#555" stroke-width="2" marker-end="url(#mb_arrow)"/>
    <line x1="1020.0" y1="209.0" x2="1310.0" y2="209.0" stroke="#555" stroke-width="2" marker-end="url(#mb_arrow)"/>
    <line x1="1490.0" y1="209.0" x2="1550.0" y2="209.0" stroke="#555" stroke-width="2" marker-end="url(#mb_arrow)"/>
    <line x1="1720.0" y1="209.0" x2="1780.0" y2="209.0" stroke="#555" stroke-width="2" marker-end="url(#mb_arrow)"/>
    <path d="M935.0,177.0 Q1402.5,-56.75 1870.0,178.0" fill="none" stroke="#3D8B3D" stroke-width="2" stroke-dasharray="6,3" marker-end="url(#mb_arrow_green)"/>
    <line x1="1960.0" y1="209.0" x2="2020.0" y2="209.0" stroke="#555" stroke-width="2" marker-end="url(#mb_arrow)"/>
    <line x1="2190.0" y1="209.0" x2="2250.0" y2="209.0" stroke="#555" stroke-width="2" marker-end="url(#mb_arrow)"/>
    <path d="M1635.0,177.0 Q1987.5,0.75 2340.0,178.0" fill="none" stroke="#3D8B3D" stroke-width="2" stroke-dasharray="6,3" marker-end="url(#mb_arrow_green)"/>
    <line x1="2430.0" y1="209.0" x2="2490.0" y2="209.0" stroke="#555" stroke-width="2" marker-end="url(#mb_arrow)"/>
    <line x1="2890.0" y1="209.0" x2="2950.0" y2="209.0" stroke="#555" stroke-width="2" marker-end="url(#mb_arrow)"/>
    <line x1="2660.0" y1="209.0" x2="2950.0" y2="209.0" stroke="#555" stroke-width="2" marker-end="url(#mb_arrow)"/>
    <path d="M2575.0,177.0 Q2807.5,60.75 3040.0,178.0" fill="none" stroke="#3D8B3D" stroke-width="2" stroke-dasharray="6,3" marker-end="url(#mb_arrow_green)"/>
    <line x1="3130.0" y1="209.0" x2="3190.0" y2="209.0" stroke="#555" stroke-width="2" marker-end="url(#mb_arrow)"/>
    <line x1="3360.0" y1="209.0" x2="3420.0" y2="209.0" stroke="#555" stroke-width="2" marker-end="url(#mb_arrow)"/>
    <path d="M935.0,177.0 Q2222.5,-466.75 3510.0,178.0" fill="none" stroke="#3D8B3D" stroke-width="2" stroke-dasharray="6,3" marker-end="url(#mb_arrow_green)"/>
    <line x1="3600.0" y1="209.0" x2="3660.0" y2="209.0" stroke="#555" stroke-width="2" marker-end="url(#mb_arrow)"/>
    <line x1="3830.0" y1="209.0" x2="3890.0" y2="209.0" stroke="#555" stroke-width="2" marker-end="url(#mb_arrow)"/>
    <line x1="4070.0" y1="209.0" x2="4130.0" y2="209.0" stroke="#555" stroke-width="2" marker-end="url(#mb_arrow)"/>
    <line x1="4300.0" y1="209.0" x2="4360.0" y2="209.0" stroke="#555" stroke-width="2" marker-end="url(#mb_arrow)"/>
    <path d="M3745.0,177.0 Q4097.5,0.75 4450.0,178.0" fill="none" stroke="#3D8B3D" stroke-width="2" stroke-dasharray="6,3" marker-end="url(#mb_arrow_green)"/>
    <line x1="4540.0" y1="209.0" x2="4600.0" y2="209.0" stroke="#555" stroke-width="2" marker-end="url(#mb_arrow)"/>
    <line x1="4770.0" y1="209.0" x2="4830.0" y2="209.0" stroke="#555" stroke-width="2" marker-end="url(#mb_arrow)"/>
    <line x1="5010.0" y1="209.0" x2="5070.0" y2="209.0" stroke="#555" stroke-width="2" marker-end="url(#mb_arrow)"/>
    <line x1="550" y1="557.0" x2="610.0" y2="557.0" stroke="#555" stroke-width="2" marker-end="url(#mb_arrow)"/>
    <line x1="790.0" y1="557.0" x2="850.0" y2="557.0" stroke="#555" stroke-width="2" marker-end="url(#mb_arrow)"/>
    <line x1="1020.0" y1="557.0" x2="1080.0" y2="557.0" stroke="#555" stroke-width="2" marker-end="url(#mb_arrow)"/>
    <line x1="1260.0" y1="557.0" x2="1320.0" y2="557.0" stroke="#555" stroke-width="2" marker-end="url(#mb_arrow)"/>
    <line x1="1490.0" y1="557.0" x2="1550.0" y2="557.0" stroke="#555" stroke-width="2" marker-end="url(#mb_arrow)"/>
    <line x1="1730.0" y1="557.0" x2="1790.0" y2="557.0" stroke="#555" stroke-width="2" marker-end="url(#mb_arrow)"/>
    <line x1="1960.0" y1="557.0" x2="2020.0" y2="557.0" stroke="#555" stroke-width="2" marker-end="url(#mb_arrow)"/>
    <line x1="2200.0" y1="557.0" x2="2260.0" y2="557.0" stroke="#555" stroke-width="2" marker-end="url(#mb_arrow)"/>
    <line x1="2430.0" y1="557.0" x2="2490.0" y2="557.0" stroke="#555" stroke-width="2" marker-end="url(#mb_arrow)"/>
    <path d="M1875.0,525.0 Q2227.5,348.75 2580.0,526.0" fill="none" stroke="#3D8B3D" stroke-width="2" stroke-dasharray="6,3" marker-end="url(#mb_arrow_green)"/>
    <line x1="2670.0" y1="557.0" x2="2730.0" y2="557.0" stroke="#555" stroke-width="2" marker-end="url(#mb_arrow)"/>
    <line x1="2900.0" y1="557.0" x2="2960.0" y2="557.0" stroke="#555" stroke-width="2" marker-end="url(#mb_arrow)"/>
    <path d="M1875.0,525.0 Q2462.5,231.25 3050.0,526.0" fill="none" stroke="#3D8B3D" stroke-width="2" stroke-dasharray="6,3" marker-end="url(#mb_arrow_green)"/>
    <line x1="3140.0" y1="557.0" x2="3200.0" y2="557.0" stroke="#555" stroke-width="2" marker-end="url(#mb_arrow)"/>
    <line x1="3370.0" y1="557.0" x2="3430.0" y2="557.0" stroke="#555" stroke-width="2" marker-end="url(#mb_arrow)"/>
    <path d="M2815.0,525.0 Q3167.5,348.75 3520.0,526.0" fill="none" stroke="#3D8B3D" stroke-width="2" stroke-dasharray="6,3" marker-end="url(#mb_arrow_green)"/>
    <line x1="3610.0" y1="557.0" x2="3670.0" y2="557.0" stroke="#555" stroke-width="2" marker-end="url(#mb_arrow)"/>
    <g>
      <ellipse cx="465" cy="209.0" rx="85" ry="32" fill="#6BA3D6" stroke="#2F74B5" stroke-width="1.5"/>
      <text x="465" y="213.0" text-anchor="middle" font-size="14" font-weight="bold" font-family="Segoe UI, Arial, sans-serif" fill="white">NC_tract</text>
    </g>
    <g>
      <rect x="610.0" y="178.0" width="180" height="62" rx="5" fill="#F5D576" stroke="#C4A030" stroke-width="2"/>
      <text x="700.0" y="213.0" text-anchor="middle" font-size="14" font-weight="bold" font-family="Segoe UI, Arial, sans-serif" fill="#333">reproject_layer</text>
    </g>
    <g>
      <ellipse cx="935.0" cy="209.0" rx="85" ry="32" fill="#6BB56A" stroke="#3D8B3D" stroke-width="1.5"/>
      <text text-anchor="middle" font-size="14" font-weight="bold" font-family="Segoe UI, Arial, sans-serif" fill="white"><tspan x="935.0" y="202.6">nc_tract_pr</tspan><tspan x="935.0" y="219.4">ojected.gpkg</tspan></text>
    </g>
    <g>
      <ellipse cx="1165.0" cy="209.0" rx="85" ry="32" fill="#6BA3D6" stroke="#2F74B5" stroke-width="1.5"/>
      <text x="1165.0" y="213.0" text-anchor="middle" font-size="14" font-weight="bold" font-family="Segoe UI, Arial, sans-serif" fill="white">NC_HW_sites</text>
    </g>
    <g>
      <rect x="1310.0" y="178.0" width="180" height="62" rx="5" fill="#F5D576" stroke="#C4A030" stroke-width="2"/>
      <text x="1400.0" y="213.0" text-anchor="middle" font-size="14" font-weight="bold" font-family="Segoe UI, Arial, sans-serif" fill="#333">reproject_layer</text>
    </g>
    <g>
      <ellipse cx="1635.0" cy="209.0" rx="85" ry="32" fill="#6BB56A" stroke="#3D8B3D" stroke-width="1.5"/>
      <text text-anchor="middle" font-size="14" font-weight="bold" font-family="Segoe UI, Arial, sans-serif" fill="white"><tspan x="1635.0" y="202.6">nc_hw_sites_p</tspan><tspan x="1635.0" y="219.4">rojected.gpkg</tspan></text>
    </g>
    <g>
      <rect x="1780.0" y="178.0" width="180" height="62" rx="5" fill="#F5D576" stroke="#C4A030" stroke-width="2"/>
      <text x="1870.0" y="213.0" text-anchor="middle" font-size="14" font-weight="bold" font-family="Segoe UI, Arial, sans-serif" fill="#333">centroid</text>
    </g>
    <g>
      <ellipse cx="2105.0" cy="209.0" rx="85" ry="32" fill="#6BB56A" stroke="#3D8B3D" stroke-width="1.5"/>
      <text text-anchor="middle" font-size="14" font-weight="bold" font-family="Segoe UI, Arial, sans-serif" fill="white"><tspan x="2105.0" y="202.6">nc_tract_ce</tspan><tspan x="2105.0" y="219.4">ntroids.gpkg</tspan></text>
    </g>
    <g>
      <rect x="2250.0" y="178.0" width="180" height="62" rx="5" fill="#F5D576" stroke="#C4A030" stroke-width="2"/>
      <text text-anchor="middle" font-size="14" font-weight="bold" font-family="Segoe UI, Arial, sans-serif" fill="#333"><tspan x="2340.0" y="202.6">nearest_neighbor_d</tspan><tspan x="2340.0" y="219.4">ance_and_buffer_co</tspan></text>
    </g>
    <g>
      <ellipse cx="2575.0" cy="209.0" rx="85" ry="32" fill="#6BB56A" stroke="#3D8B3D" stroke-width="1.5"/>
      <text text-anchor="middle" font-size="14" font-weight="bold" font-family="Segoe UI, Arial, sans-serif" fill="white"><tspan x="2575.0" y="202.6">tract_proximi</tspan><tspan x="2575.0" y="219.4">ty_metrics.csv</tspan></text>
    </g>
    <g>
      <ellipse cx="2805.0" cy="209.0" rx="85" ry="32" fill="#6BA3D6" stroke="#2F74B5" stroke-width="1.5"/>
      <text x="2805.0" y="213.0" text-anchor="middle" font-size="14" font-weight="bold" font-family="Segoe UI, Arial, sans-serif" fill="white">NC_PLACES</text>
    </g>
    <g>
      <rect x="2950.0" y="178.0" width="180" height="62" rx="5" fill="#F5D576" stroke="#C4A030" stroke-width="2"/>
      <text x="3040.0" y="213.0" text-anchor="middle" font-size="14" font-weight="bold" font-family="Segoe UI, Arial, sans-serif" fill="#333">left_join</text>
    </g>
    <g>
      <ellipse cx="3275.0" cy="209.0" rx="85" ry="32" fill="#6BB56A" stroke="#3D8B3D" stroke-width="1.5"/>
      <text text-anchor="middle" font-size="14" font-weight="bold" font-family="Segoe UI, Arial, sans-serif" fill="white"><tspan x="3275.0" y="202.6">asthma_pro</tspan><tspan x="3275.0" y="219.4">ximity.csv</tspan></text>
    </g>
    <g>
      <rect x="3420.0" y="178.0" width="180" height="62" rx="5" fill="#F5D576" stroke="#C4A030" stroke-width="2"/>
      <text x="3510.0" y="213.0" text-anchor="middle" font-size="14" font-weight="bold" font-family="Segoe UI, Arial, sans-serif" fill="#333">attribute_join</text>
    </g>
    <g>
      <ellipse cx="3745.0" cy="209.0" rx="85" ry="32" fill="#6BB56A" stroke="#3D8B3D" stroke-width="1.5"/>
      <text text-anchor="middle" font-size="14" font-weight="bold" font-family="Segoe UI, Arial, sans-serif" fill="white"><tspan x="3745.0" y="202.6">tract_asthma_</tspan><tspan x="3745.0" y="219.4">proximity.gpkg</tspan></text>
    </g>
    <g>
      <rect x="3890.0" y="178.0" width="180" height="62" rx="5" fill="#F5D576" stroke="#C4A030" stroke-width="2"/>
      <text x="3980.0" y="213.0" text-anchor="middle" font-size="14" font-weight="bold" font-family="Segoe UI, Arial, sans-serif" fill="#333">global_morans_I</text>
    </g>
    <g>
      <ellipse cx="4215.0" cy="209.0" rx="85" ry="32" fill="#6BB56A" stroke="#3D8B3D" stroke-width="1.5"/>
      <text text-anchor="middle" font-size="14" font-weight="bold" font-family="Segoe UI, Arial, sans-serif" fill="white"><tspan x="4215.0" y="202.6">global_morans</tspan><tspan x="4215.0" y="219.4">I_asthma.json</tspan></text>
    </g>
    <g>
      <rect x="4360.0" y="178.0" width="180" height="62" rx="5" fill="#F5D576" stroke="#C4A030" stroke-width="2"/>
      <text x="4450.0" y="213.0" text-anchor="middle" font-size="14" font-weight="bold" font-family="Segoe UI, Arial, sans-serif" fill="#333">getis_ord_gi_star</text>
    </g>
    <g>
      <ellipse cx="4685.0" cy="209.0" rx="85" ry="32" fill="#6BB56A" stroke="#3D8B3D" stroke-width="1.5"/>
      <text text-anchor="middle" font-size="14" font-weight="bold" font-family="Segoe UI, Arial, sans-serif" fill="white"><tspan x="4685.0" y="202.6">asthma_hot</tspan><tspan x="4685.0" y="219.4">spots.gpkg</tspan></text>
    </g>
    <g>
      <rect x="4830.0" y="178.0" width="180" height="62" rx="5" fill="#F5D576" stroke="#C4A030" stroke-width="2"/>
      <text text-anchor="middle" font-size="14" font-weight="bold" font-family="Segoe UI, Arial, sans-serif" fill="#333"><tspan x="4920.0" y="202.6">mann_whit</tspan><tspan x="4920.0" y="219.4">ney_u_test</tspan></text>
    </g>
    <g>
      <ellipse cx="5155.0" cy="209.0" rx="90" ry="35" fill="#6BB56A" stroke="#3D8B3D" stroke-width="2.5"/>
      <text text-anchor="middle" font-size="14" font-weight="bold" font-family="Segoe UI, Arial, sans-serif" fill="white"><tspan x="5155.0" y="202.6">hotspot_proximit</tspan><tspan x="5155.0" y="219.4">y_comparison.jso</tspan></text>
    </g>
    <g>
      <ellipse cx="465" cy="557.0" rx="85" ry="32" fill="#6BA3D6" stroke="#2F74B5" stroke-width="1.5"/>
      <text x="465" y="561.0" text-anchor="middle" font-size="14" font-weight="bold" font-family="Segoe UI, Arial, sans-serif" fill="white">NC_ACS_data</text>
    </g>
    <g>
      <rect x="610.0" y="526.0" width="180" height="62" rx="5" fill="#F5D576" stroke="#C4A030" stroke-width="2"/>
      <text x="700.0" y="561.0" text-anchor="middle" font-size="14" font-weight="bold" font-family="Segoe UI, Arial, sans-serif" fill="#333">left_join</text>
    </g>
    <g>
      <ellipse cx="935.0" cy="557.0" rx="85" ry="32" fill="#6BB56A" stroke="#3D8B3D" stroke-width="1.5"/>
      <text text-anchor="middle" font-size="14" font-weight="bold" font-family="Segoe UI, Arial, sans-serif" fill="white"><tspan x="935.0" y="550.6">tract_asthma</tspan><tspan x="935.0" y="567.4">_prox_acs.csv</tspan></text>
    </g>
    <g>
      <rect x="1080.0" y="526.0" width="180" height="62" rx="5" fill="#F5D576" stroke="#C4A030" stroke-width="2"/>
      <text text-anchor="middle" font-size="14" font-weight="bold" font-family="Segoe UI, Arial, sans-serif" fill="#333"><tspan x="1170.0" y="550.6">filter_rows_c</tspan><tspan x="1170.0" y="567.4">omplete_cases</tspan></text>
    </g>
    <g>
      <ellipse cx="1405.0" cy="557.0" rx="85" ry="32" fill="#6BB56A" stroke="#3D8B3D" stroke-width="1.5"/>
      <text text-anchor="middle" font-size="14" font-weight="bold" font-family="Segoe UI, Arial, sans-serif" fill="white"><tspan x="1405.0" y="550.6">tract_modeling_c</tspan><tspan x="1405.0" y="567.4">ompletecases.csv</tspan></text>
    </g>
    <g>
      <rect x="1550.0" y="526.0" width="180" height="62" rx="5" fill="#F5D576" stroke="#C4A030" stroke-width="2"/>
      <text text-anchor="middle" font-size="14" font-weight="bold" font-family="Segoe UI, Arial, sans-serif" fill="#333"><tspan x="1640.0" y="550.6">feature_e</tspan><tspan x="1640.0" y="567.4">ngineering</tspan></text>
    </g>
    <g>
      <ellipse cx="1875.0" cy="557.0" rx="85" ry="32" fill="#6BB56A" stroke="#3D8B3D" stroke-width="1.5"/>
      <text text-anchor="middle" font-size="14" font-weight="bold" font-family="Segoe UI, Arial, sans-serif" fill="white"><tspan x="1875.0" y="550.6">tract_modelin</tspan><tspan x="1875.0" y="567.4">g_features.csv</tspan></text>
    </g>
    <g>
      <rect x="2020.0" y="526.0" width="180" height="62" rx="5" fill="#F5D576" stroke="#C4A030" stroke-width="2"/>
      <text text-anchor="middle" font-size="14" font-weight="bold" font-family="Segoe UI, Arial, sans-serif" fill="#333"><tspan x="2110.0" y="550.6">ordinary_least_squ</tspan><tspan x="2110.0" y="567.4">es_with_interactio</tspan></text>
    </g>
    <g>
      <ellipse cx="2345.0" cy="557.0" rx="85" ry="32" fill="#6BB56A" stroke="#3D8B3D" stroke-width="1.5"/>
      <text text-anchor="middle" font-size="14" font-weight="bold" font-family="Segoe UI, Arial, sans-serif" fill="white"><tspan x="2345.0" y="550.6">ols_interactio</tspan><tspan x="2345.0" y="567.4">n_results.json</tspan></text>
    </g>
    <g>
      <rect x="2490.0" y="526.0" width="180" height="62" rx="5" fill="#F5D576" stroke="#C4A030" stroke-width="2"/>
      <text x="2580.0" y="561.0" text-anchor="middle" font-size="14" font-weight="bold" font-family="Segoe UI, Arial, sans-serif" fill="#333">attach_coordinates</text>
    </g>
    <g>
      <ellipse cx="2815.0" cy="557.0" rx="85" ry="32" fill="#6BB56A" stroke="#3D8B3D" stroke-width="1.5"/>
      <text text-anchor="middle" font-size="14" font-weight="bold" font-family="Segoe UI, Arial, sans-serif" fill="white"><tspan x="2815.0" y="550.6">tract_modelin</tspan><tspan x="2815.0" y="567.4">g_with_xy.csv</tspan></text>
    </g>
    <g>
      <rect x="2960.0" y="526.0" width="180" height="62" rx="5" fill="#F5D576" stroke="#C4A030" stroke-width="2"/>
      <text text-anchor="middle" font-size="14" font-weight="bold" font-family="Segoe UI, Arial, sans-serif" fill="#333"><tspan x="3050.0" y="550.6">variance_infl</tspan><tspan x="3050.0" y="567.4">ation_factors</tspan></text>
    </g>
    <g>
      <ellipse cx="3285.0" cy="557.0" rx="85" ry="32" fill="#6BB56A" stroke="#3D8B3D" stroke-width="1.5"/>
      <text x="3285.0" y="561.0" text-anchor="middle" font-size="14" font-weight="bold" font-family="Segoe UI, Arial, sans-serif" fill="white">vif_results.json</text>
    </g>
    <g>
      <rect x="3430.0" y="526.0" width="180" height="62" rx="5" fill="#F5D576" stroke="#C4A030" stroke-width="2"/>
      <text text-anchor="middle" font-size="14" font-weight="bold" font-family="Segoe UI, Arial, sans-serif" fill="#333"><tspan x="3520.0" y="550.6">geographically_we</tspan><tspan x="3520.0" y="567.4">ighted_regression</tspan></text>
    </g>
    <g>
      <ellipse cx="3755.0" cy="557.0" rx="90" ry="35" fill="#6BB56A" stroke="#3D8B3D" stroke-width="2.5"/>
      <text text-anchor="middle" font-size="14" font-weight="bold" font-family="Segoe UI, Arial, sans-serif" fill="white"><tspan x="3755.0" y="550.6">gwr_local_coe</tspan><tspan x="3755.0" y="567.4">fficients.gpkg</tspan></text>
    </g>
    <path d="M3275.0,241.0 C3275.0,383.5 700.0,486.0 700.0,526.0" fill="none" stroke="#E67E22" stroke-width="2" stroke-dasharray="8,4" marker-end="url(#mb_arrow_orange)"/>
    <path d="M2105.0,241.0 C2105.0,383.5 2580.0,486.0 2580.0,526.0" fill="none" stroke="#E67E22" stroke-width="2" stroke-dasharray="8,4" marker-end="url(#mb_arrow_orange)"/>
    <line x1="5545.0" y1="383.0" x2="5600.0" y2="383.0" stroke="#555" stroke-width="2" marker-end="url(#mb_arrow)"/>
    <line x1="5790.0" y1="383.0" x2="5850.0" y2="383.0" stroke="#555" stroke-width="2" marker-end="url(#mb_arrow)"/>
    
    <path d="M5240.0,209.0 C5297.5,209.0 5297.5,383.0 5355.0,383.0" fill="none" stroke="#555" stroke-width="2" marker-end="url(#mb_arrow)"/>
    <path d="M3840.0,557.0 C4597.5,557.0 4597.5,383.0 5355.0,383.0" fill="none" stroke="#555" stroke-width="2" marker-end="url(#mb_arrow)"/>
    <g>
      <rect x="5355.0" y="353.0" width="190" height="60" rx="5" fill="#F5D576" stroke="#C4A030" stroke-width="2"/>
      <text x="5450.0" y="387.0" text-anchor="middle" font-size="14" font-weight="bold" font-family="Segoe UI, Arial, sans-serif" fill="#333">Result Collation</text>
    </g>
    <g>
      <rect x="5600.0" y="353.0" width="190" height="60" rx="5" fill="#8E44AD" stroke="#6C3483" stroke-width="2"/>
      <text x="5695.0" y="387.0" text-anchor="middle" font-size="14" font-weight="bold" font-family="Segoe UI, Arial, sans-serif" fill="white">Results Analysis</text>
    </g>
    
    <g>
      <ellipse cx="5940.0" cy="383.0" rx="90" ry="32" fill="#C0392B" stroke="#922B21" stroke-width="2.5"/>
      <text x="5940.0" y="387.0" text-anchor="middle" font-size="14" font-weight="bold" font-family="Segoe UI, Arial, sans-serif" fill="white">Manuscript</text>
    </g>
    </g>
  </svg>
