<?xml version="1.0" encoding="UTF-8" standalone="no"?>
<svg xmlns="http://www.w3.org/2000/svg" viewBox="0.0 -60.0 5455.0 1194.0" font-family="Segoe UI, Arial, sans-serif">
  <text x="2727.5" y="-25.0" text-anchor="middle" font-size="24" font-weight="bold" fill="#2C3E50">Spatial Inequalities in PM2.5 Exposure and Income Inequality in California Counties (2019)</text>
  <g transform="translate(20.0,-50.0)">
    <rect x="0" y="0" width="900" height="40" rx="6" fill="#fff" stroke="#bbb"/>
    <ellipse cx="25" cy="20" rx="14" ry="9" fill="#6BA3D6" stroke="#2F74B5"/>
    <text x="48" y="24" font-size="14" fill="#333">Input data</text>
    <rect x="160" y="11" width="28" height="18" rx="3" fill="#F5D576" stroke="#C4A030"/>
    <text x="195" y="24" font-size="14" fill="#333">Operation / tool</text>
    <ellipse cx="345" cy="20" rx="14" ry="9" fill="#6BB56A" stroke="#3D8B3D"/>
    <text x="368" y="24" font-size="14" fill="#333">Output data</text>
    <line x1="500" y1="20" x2="540" y2="20" stroke="#3D8B3D" stroke-width="2" stroke-dasharray="6,3"/>
    <text x="548" y="24" font-size="14" fill="#333">Reused (within objective)</text>
    <line x1="740" y1="20" x2="780" y2="20" stroke="#E67E22" stroke-width="2" stroke-dasharray="8,4"/>
    <text x="788" y="24" font-size="14" fill="#333">Reused (cross objective)</text>
  </g>
    <defs>
      <marker id="mb_arrow" markerWidth="14" markerHeight="12" refX="13" refY="6" orient="auto" markerUnits="userSpaceOnUse">
        <polygon points="0 0,14 6,0 12" fill="#555"/>
      </marker>
      <marker id="mb_arrow_green" markerWidth="14" markerHeight="12" refX="13" refY="6" orient="auto" markerUnits="userSpaceOnUse">
        <polygon points="0 0,14 6,0 12" fill="#3D8B3D"/>
      </marker>
      <marker id="mb_arrow_orange" markerWidth="14" markerHeight="12" refX="13" refY="6" orient="auto" markerUnits="userSpaceOnUse">
        <polygon points="0 0,14 6,0 12" fill="#E67E22"/>
      </marker>
    </defs>
    <g id="zoomGroup">
    <rect x="0" y="55" width="5455" height="308" fill="#edf2f9" rx="6"/>
    <g>
      <rect x="220.0" y="188.0" width="120" height="42" rx="6" fill="#34495E" stroke="#2C3E50" stroke-width="2"/>
      <text x="280.0" y="213.0" text-anchor="middle" font-size="14" font-weight="bold" font-family="Segoe UI, Arial, sans-serif" fill="white">Obj 1</text>
    </g>
    <rect x="0" y="403" width="5455" height="308" fill="#fdf5e8" rx="6"/>
    <g>
      <rect x="220.0" y="536.0" width="120" height="42" rx="6" fill="#34495E" stroke="#2C3E50" stroke-width="2"/>
      <text x="280.0" y="561.0" text-anchor="middle" font-size="14" font-weight="bold" font-family="Segoe UI, Arial, sans-serif" fill="white">Obj 2</text>
    </g>
    <rect x="0" y="751" width="5455" height="308" fill="#edf9ed" rx="6"/>
    <g>
      <rect x="220.0" y="884.0" width="120" height="42" rx="6" fill="#34495E" stroke="#2C3E50" stroke-width="2"/>
      <text x="280.0" y="909.0" text-anchor="middle" font-size="14" font-weight="bold" font-family="Segoe UI, Arial, sans-serif" fill="white">Obj 3</text>
    </g>
    <g>
      <rect x="10.0" y="529.0" width="130" height="56" rx="8" fill="#2C3E50" stroke="#1A252F" stroke-width="2"/>
      <text x="75.0" y="561.0" text-anchor="middle" font-size="15" font-weight="bold" font-family="Segoe UI, Arial, sans-serif" fill="white">Research Question</text>
    </g>
    <path d="M140.0,557.0 C180.0,557.0 180.0,209.0 220.0,209.0" fill="none" stroke="#555" stroke-width="2" marker-end="url(#mb_arrow)"/>
    <path d="M140.0,557.0 C180.0,557.0 180.0,557.0 220.0,557.0" fill="none" stroke="#555" stroke-width="2" marker-end="url(#mb_arrow)"/>
    <path d="M140.0,557.0 C180.0,557.0 180.0,905.0 220.0,905.0" fill="none" stroke="#555" stroke-width="2" marker-end="url(#mb_arrow)"/>
    <line x1="340.0" y1="209.0" x2="380" y2="209.0" stroke="#555" stroke-width="2" marker-end="url(#mb_arrow)"/>
    <line x1="340.0" y1="557.0" x2="380" y2="557.0" stroke="#555" stroke-width="2" marker-end="url(#mb_arrow)"/>
    <line x1="340.0" y1="905.0" x2="380" y2="905.0" stroke="#555" stroke-width="2" marker-end="url(#mb_arrow)"/>
    <line x1="550" y1="209.0" x2="610.0" y2="209.0" stroke="#555" stroke-width="2" marker-end="url(#mb_arrow)"/>
    <line x1="790.0" y1="209.0" x2="850.0" y2="209.0" stroke="#555" stroke-width="2" marker-end="url(#mb_arrow)"/>
    <line x1="1020.0" y1="209.0" x2="1080.0" y2="209.0" stroke="#555" stroke-width="2" marker-end="url(#mb_arrow)"/>
    <line x1="1260.0" y1="209.0" x2="1320.0" y2="209.0" stroke="#555" stroke-width="2" marker-end="url(#mb_arrow)"/>
    <line x1="1490.0" y1="209.0" x2="1550.0" y2="209.0" stroke="#555" stroke-width="2" marker-end="url(#mb_arrow)"/>
    <line x1="1730.0" y1="209.0" x2="1790.0" y2="209.0" stroke="#555" stroke-width="2" marker-end="url(#mb_arrow)"/>
    <line x1="2190.0" y1="209.0" x2="2250.0" y2="209.0" stroke="#555" stroke-width="2" marker-end="url(#mb_arrow)"/>
    <line x1="1960.0" y1="209.0" x2="2250.0" y2="209.0" stroke="#555" stroke-width="2" marker-end="url(#mb_arrow)"/>
    <path d="M1875.0,177.0 Q2107.5,60.75 2340.0,178.0" fill="none" stroke="#3D8B3D" stroke-width="2" stroke-dasharray="6,3" marker-end="url(#mb_arrow_green)"/>
    <line x1="2430.0" y1="209.0" x2="2490.0" y2="209.0" stroke="#555" stroke-width="2" marker-end="url(#mb_arrow)"/>
    <line x1="2660.0" y1="209.0" x2="2720.0" y2="209.0" stroke="#555" stroke-width="2" marker-end="url(#mb_arrow)"/>
    <line x1="2900.0" y1="209.0" x2="2960.0" y2="209.0" stroke="#555" stroke-width="2" marker-end="url(#mb_arrow)"/>
    <line x1="3130.0" y1="209.0" x2="3190.0" y2="209.0" stroke="#555" stroke-width="2" marker-end="url(#mb_arrow)"/>
    <line x1="3370.0" y1="209.0" x2="3430.0" y2="209.0" stroke="#555" stroke-width="2" marker-end="url(#mb_arrow)"/>
    <line x1="3600.0" y1="209.0" x2="3660.0" y2="209.0" stroke="#555" stroke-width="2" marker-end="url(#mb_arrow)"/>
    <path d="M3045.0,177.0 Q3397.5,0.75 3750.0,178.0" fill="none" stroke="#3D8B3D" stroke-width="2" stroke-dasharray="6,3" marker-end="url(#mb_arrow_green)"/>
    <line x1="3840.0" y1="209.0" x2="3900.0" y2="209.0" stroke="#555" stroke-width="2" marker-end="url(#mb_arrow)"/>
    <line x1="550" y1="557.0" x2="610.0" y2="557.0" stroke="#555" stroke-width="2" marker-end="url(#mb_arrow)"/>
    <line x1="790.0" y1="557.0" x2="850.0" y2="557.0" stroke="#555" stroke-width="2" marker-end="url(#mb_arrow)"/>
    <line x1="1020.0" y1="557.0" x2="1080.0" y2="557.0" stroke="#555" stroke-width="2" marker-end="url(#mb_arrow)"/>
    <line x1="1260.0" y1="557.0" x2="1320.0" y2="557.0" stroke="#555" stroke-width="2" marker-end="url(#mb_arrow)"/>
    <line x1="1490.0" y1="557.0" x2="1550.0" y2="557.0" stroke="#555" stroke-width="2" marker-end="url(#mb_arrow)"/>
    <line x1="1730.0" y1="557.0" x2="1790.0" y2="557.0" stroke="#555" stroke-width="2" marker-end="url(#mb_arrow)"/>
    <line x1="1960.0" y1="557.0" x2="2020.0" y2="557.0" stroke="#555" stroke-width="2" marker-end="url(#mb_arrow)"/>
    <line x1="2200.0" y1="557.0" x2="2260.0" y2="557.0" stroke="#555" stroke-width="2" marker-end="url(#mb_arrow)"/>
    <line x1="2430.0" y1="557.0" x2="2490.0" y2="557.0" stroke="#555" stroke-width="2" marker-end="url(#mb_arrow)"/>
    <line x1="2670.0" y1="557.0" x2="2730.0" y2="557.0" stroke="#555" stroke-width="2" marker-end="url(#mb_arrow)"/>
    <line x1="2900.0" y1="557.0" x2="2960.0" y2="557.0" stroke="#555" stroke-width="2" marker-end="url(#mb_arrow)"/>
    <path d="M1875.0,525.0 Q2462.5,231.25 3050.0,526.0" fill="none" stroke="#3D8B3D" stroke-width="2" stroke-dasharray="6,3" marker-end="url(#mb_arrow_green)"/>
    <line x1="3140.0" y1="557.0" x2="3200.0" y2="557.0" stroke="#555" stroke-width="2" marker-end="url(#mb_arrow)"/>
    <line x1="3370.0" y1="557.0" x2="3430.0" y2="557.0" stroke="#555" stroke-width="2" marker-end="url(#mb_arrow)"/>
    <path d="M1875.0,525.0 Q2697.5,113.75 3520.0,526.0" fill="none" stroke="#3D8B3D" stroke-width="2" stroke-dasharray="6,3" marker-end="url(#mb_arrow_green)"/>
    <line x1="3610.0" y1="557.0" x2="3670.0" y2="557.0" stroke="#555" stroke-width="2" marker-end="url(#mb_arrow)"/>
    <line x1="3840.0" y1="557.0" x2="3900.0" y2="557.0" stroke="#555" stroke-width="2" marker-end="url(#mb_arrow)"/>
    <path d="M1875.0,525.0 Q2932.5,-3.75 3990.0,526.0" fill="none" stroke="#3D8B3D" stroke-width="2" stroke-dasharray="6,3" marker-end="url(#mb_arrow_green)"/>
    <line x1="4080.0" y1="557.0" x2="4140.0" y2="557.0" stroke="#555" stroke-width="2" marker-end="url(#mb_arrow)"/>
    <line x1="550" y1="905.0" x2="610.0" y2="905.0" stroke="#555" stroke-width="2" marker-end="url(#mb_arrow)"/>
    <line x1="790.0" y1="905.0" x2="850.0" y2="905.0" stroke="#555" stroke-width="2" marker-end="url(#mb_arrow)"/>
    <line x1="1020.0" y1="905.0" x2="1080.0" y2="905.0" stroke="#555" stroke-width="2" marker-end="url(#mb_arrow)"/>
    <line x1="1260.0" y1="905.0" x2="1320.0" y2="905.0" stroke="#555" stroke-width="2" marker-end="url(#mb_arrow)"/>
    <line x1="1490.0" y1="905.0" x2="1550.0" y2="905.0" stroke="#555" stroke-width="2" marker-end="url(#mb_arrow)"/>
    <line x1="1730.0" y1="905.0" x2="1790.0" y2="905.0" stroke="#555" stroke-width="2" marker-end="url(#mb_arrow)"/>
    <line x1="1960.0" y1="905.0" x2="2020.0" y2="905.0" stroke="#555" stroke-width="2" marker-end="url(#mb_arrow)"/>
    <line x1="2200.0" y1="905.0" x2="2260.0" y2="905.0" stroke="#555" stroke-width="2" marker-end="url(#mb_arrow)"/>
    <line x1="2430.0" y1="905.0" x2="2490.0" y2="905.0" stroke="#555" stroke-width="2" marker-end="url(#mb_arrow)"/>
    <path d="M1875.0,873.0 Q2227.5,696.75 2580.0,874.0" fill="none" stroke="#3D8B3D" stroke-width="2" stroke-dasharray="6,3" marker-end="url(#mb_arrow_green)"/>
    <line x1="2670.0" y1="905.0" x2="2730.0" y2="905.0" stroke="#555" stroke-width="2" marker-end="url(#mb_arrow)"/>
    <line x1="2900.0" y1="905.0" x2="2960.0" y2="905.0" stroke="#555" stroke-width="2" marker-end="url(#mb_arrow)"/>
    <path d="M1405.0,873.0 Q2227.5,461.75 3050.0,874.0" fill="none" stroke="#3D8B3D" stroke-width="2" stroke-dasharray="6,3" marker-end="url(#mb_arrow_green)"/>
    <line x1="3140.0" y1="905.0" x2="3200.0" y2="905.0" stroke="#555" stroke-width="2" marker-end="url(#mb_arrow)"/>
    <g>
      <ellipse cx="465" cy="209.0" rx="85" ry="32" fill="#6BA3D6" stroke="#2F74B5" stroke-width="1.5"/>
      <text text-anchor="middle" font-size="14" font-weight="bold" font-family="Segoe UI, Arial, sans-serif" fill="white"><tspan x="465" y="202.6">PM2.5_Annual_C</tspan><tspan x="465" y="219.4">alifornia_2019</tspan></text>
    </g>
    <g>
      <rect x="610.0" y="178.0" width="180" height="62" rx="5" fill="#F5D576" stroke="#C4A030" stroke-width="2"/>
      <text x="700.0" y="213.0" text-anchor="middle" font-size="14" font-weight="bold" font-family="Segoe UI, Arial, sans-serif" fill="#333">row_filter</text>
    </g>
    <g>
      <ellipse cx="935.0" cy="209.0" rx="85" ry="32" fill="#6BB56A" stroke="#3D8B3D" stroke-width="1.5"/>
      <text text-anchor="middle" font-size="14" font-weight="bold" font-family="Segoe UI, Arial, sans-serif" fill="white"><tspan x="935.0" y="202.6">pm25_2019_annu</tspan><tspan x="935.0" y="219.4">al_records.csv</tspan></text>
    </g>
    <g>
      <rect x="1080.0" y="178.0" width="180" height="62" rx="5" fill="#F5D576" stroke="#C4A030" stroke-width="2"/>
      <text x="1170.0" y="213.0" text-anchor="middle" font-size="14" font-weight="bold" font-family="Segoe UI, Arial, sans-serif" fill="#333">derive_column</text>
    </g>
    <g>
      <ellipse cx="1405.0" cy="209.0" rx="85" ry="32" fill="#6BB56A" stroke="#3D8B3D" stroke-width="1.5"/>
      <text text-anchor="middle" font-size="14" font-weight="bold" font-family="Segoe UI, Arial, sans-serif" fill="white"><tspan x="1405.0" y="202.6">pm25_2019_wi</tspan><tspan x="1405.0" y="219.4">th_geoid.csv</tspan></text>
    </g>
    <g>
      <rect x="1550.0" y="178.0" width="180" height="62" rx="5" fill="#F5D576" stroke="#C4A030" stroke-width="2"/>
      <text text-anchor="middle" font-size="14" font-weight="bold" font-family="Segoe UI, Arial, sans-serif" fill="#333"><tspan x="1640.0" y="202.6">groupby_aggregat</tspan><tspan x="1640.0" y="219.4">e_mean_and_count</tspan></text>
    </g>
    <g>
      <ellipse cx="1875.0" cy="209.0" rx="85" ry="32" fill="#6BB56A" stroke="#3D8B3D" stroke-width="1.5"/>
      <text text-anchor="middle" font-size="14" font-weight="bold" font-family="Segoe UI, Arial, sans-serif" fill="white"><tspan x="1875.0" y="202.6">pm25_count</tspan><tspan x="1875.0" y="219.4">y_2019.csv</tspan></text>
    </g>
    <g>
      <ellipse cx="2105.0" cy="209.0" rx="85" ry="32" fill="#6BA3D6" stroke="#2F74B5" stroke-width="1.5"/>
      <text text-anchor="middle" font-size="14" font-weight="bold" font-family="Segoe UI, Arial, sans-serif" fill="white"><tspan x="2105.0" y="202.6">california_c</tspan><tspan x="2105.0" y="219.4">ounties_2019</tspan></text>
    </g>
    <g>
      <rect x="2250.0" y="178.0" width="180" height="62" rx="5" fill="#F5D576" stroke="#C4A030" stroke-width="2"/>
      <text x="2340.0" y="213.0" text-anchor="middle" font-size="14" font-weight="bold" font-family="Segoe UI, Arial, sans-serif" fill="#333">attribute_join</text>
    </g>
    <g>
      <ellipse cx="2575.0" cy="209.0" rx="85" ry="32" fill="#6BB56A" stroke="#3D8B3D" stroke-width="1.5"/>
      <text text-anchor="middle" font-size="14" font-weight="bold" font-family="Segoe UI, Arial, sans-serif" fill="white"><tspan x="2575.0" y="202.6">counties_pm</tspan><tspan x="2575.0" y="219.4">25_2019.gpkg</tspan></text>
    </g>
    <g>
      <rect x="2720.0" y="178.0" width="180" height="62" rx="5" fill="#F5D576" stroke="#C4A030" stroke-width="2"/>
      <text x="2810.0" y="213.0" text-anchor="middle" font-size="14" font-weight="bold" font-family="Segoe UI, Arial, sans-serif" fill="#333">derive_column</text>
    </g>
    <g>
      <ellipse cx="3045.0" cy="209.0" rx="85" ry="32" fill="#6BB56A" stroke="#3D8B3D" stroke-width="1.5"/>
      <text text-anchor="middle" font-size="14" font-weight="bold" font-family="Segoe UI, Arial, sans-serif" fill="white"><tspan x="3045.0" y="202.6">counties_pm25</tspan><tspan x="3045.0" y="219.4">_2019_qc.gpkg</tspan></text>
    </g>
    <g>
      <rect x="3190.0" y="178.0" width="180" height="62" rx="5" fill="#F5D576" stroke="#C4A030" stroke-width="2"/>
      <text text-anchor="middle" font-size="14" font-weight="bold" font-family="Segoe UI, Arial, sans-serif" fill="#333"><tspan x="3280.0" y="202.6">spatial_weights_</tspan><tspan x="3280.0" y="219.4">queen_contiguity</tspan></text>
    </g>
    <g>
      <ellipse cx="3515.0" cy="209.0" rx="85" ry="32" fill="#6BB56A" stroke="#3D8B3D" stroke-width="1.5"/>
      <text text-anchor="middle" font-size="14" font-weight="bold" font-family="Segoe UI, Arial, sans-serif" fill="white"><tspan x="3515.0" y="202.6">ca_county_queen_</tspan><tspan x="3515.0" y="219.4">weights_2019.gpk</tspan></text>
    </g>
    <g>
      <rect x="3660.0" y="178.0" width="180" height="62" rx="5" fill="#F5D576" stroke="#C4A030" stroke-width="2"/>
      <text x="3750.0" y="213.0" text-anchor="middle" font-size="14" font-weight="bold" font-family="Segoe UI, Arial, sans-serif" fill="#333">global_morans_I</text>
    </g>
    <g>
      <ellipse cx="3985.0" cy="209.0" rx="90" ry="35" fill="#6BB56A" stroke="#3D8B3D" stroke-width="2.5"/>
      <text text-anchor="middle" font-size="14" font-weight="bold" font-family="Segoe UI, Arial, sans-serif" fill="white"><tspan x="3985.0" y="202.6">pm25_global_mo</tspan><tspan x="3985.0" y="219.4">ransI_2019.csv</tspan></text>
    </g>
    <g>
      <ellipse cx="465" cy="557.0" rx="85" ry="32" fill="#6BA3D6" stroke="#2F74B5" stroke-width="1.5"/>
      <text text-anchor="middle" font-size="14" font-weight="bold" font-family="Segoe UI, Arial, sans-serif" fill="white"><tspan x="465" y="550.6">California_Cou</tspan><tspan x="465" y="567.4">nties_Gini_2019</tspan></text>
    </g>
    <g>
      <rect x="610.0" y="526.0" width="180" height="62" rx="5" fill="#F5D576" stroke="#C4A030" stroke-width="2"/>
      <text x="700.0" y="561.0" text-anchor="middle" font-size="14" font-weight="bold" font-family="Segoe UI, Arial, sans-serif" fill="#333">row_filter</text>
    </g>
    <g>
      <ellipse cx="935.0" cy="557.0" rx="85" ry="32" fill="#6BB56A" stroke="#3D8B3D" stroke-width="1.5"/>
      <text text-anchor="middle" font-size="14" font-weight="bold" font-family="Segoe UI, Arial, sans-serif" fill="white"><tspan x="935.0" y="550.6">gini_2019_f</tspan><tspan x="935.0" y="567.4">iltered.csv</tspan></text>
    </g>
    <g>
      <rect x="1080.0" y="526.0" width="180" height="62" rx="5" fill="#F5D576" stroke="#C4A030" stroke-width="2"/>
      <text x="1170.0" y="561.0" text-anchor="middle" font-size="14" font-weight="bold" font-family="Segoe UI, Arial, sans-serif" fill="#333">derive_column</text>
    </g>
    <g>
      <ellipse cx="1405.0" cy="557.0" rx="85" ry="32" fill="#6BB56A" stroke="#3D8B3D" stroke-width="1.5"/>
      <text text-anchor="middle" font-size="14" font-weight="bold" font-family="Segoe UI, Arial, sans-serif" fill="white"><tspan x="1405.0" y="550.6">gini_2019_wi</tspan><tspan x="1405.0" y="567.4">th_geoid.csv</tspan></text>
    </g>
    <g>
      <rect x="1550.0" y="526.0" width="180" height="62" rx="5" fill="#F5D576" stroke="#C4A030" stroke-width="2"/>
      <text x="1640.0" y="561.0" text-anchor="middle" font-size="14" font-weight="bold" font-family="Segoe UI, Arial, sans-serif" fill="#333">attribute_join</text>
    </g>
    <g>
      <ellipse cx="1875.0" cy="557.0" rx="85" ry="32" fill="#6BB56A" stroke="#3D8B3D" stroke-width="1.5"/>
      <text text-anchor="middle" font-size="14" font-weight="bold" font-family="Segoe UI, Arial, sans-serif" fill="white"><tspan x="1875.0" y="550.6">counties_pm25_</tspan><tspan x="1875.0" y="567.4">gini_2019.gpkg</tspan></text>
    </g>
    <g>
      <rect x="2020.0" y="526.0" width="180" height="62" rx="5" fill="#F5D576" stroke="#C4A030" stroke-width="2"/>
      <text text-anchor="middle" font-size="14" font-weight="bold" font-family="Segoe UI, Arial, sans-serif" fill="#333"><tspan x="2110.0" y="550.6">ordinary_least_squ</tspan><tspan x="2110.0" y="567.4">res_append_residua</tspan></text>
    </g>
    <g>
      <ellipse cx="2345.0" cy="557.0" rx="85" ry="32" fill="#6BB56A" stroke="#3D8B3D" stroke-width="1.5"/>
      <text text-anchor="middle" font-size="14" font-weight="bold" font-family="Segoe UI, Arial, sans-serif" fill="white"><tspan x="2345.0" y="550.6">counties_pm25_gi</tspan><tspan x="2345.0" y="567.4">_2019_olsresid.g</tspan></text>
    </g>
    <g>
      <rect x="2490.0" y="526.0" width="180" height="62" rx="5" fill="#F5D576" stroke="#C4A030" stroke-width="2"/>
      <text x="2580.0" y="561.0" text-anchor="middle" font-size="14" font-weight="bold" font-family="Segoe UI, Arial, sans-serif" fill="#333">global_morans_I</text>
    </g>
    <g>
      <ellipse cx="2815.0" cy="557.0" rx="85" ry="32" fill="#6BB56A" stroke="#3D8B3D" stroke-width="1.5"/>
      <text text-anchor="middle" font-size="14" font-weight="bold" font-family="Segoe UI, Arial, sans-serif" fill="white"><tspan x="2815.0" y="550.6">ols_residuals_m</tspan><tspan x="2815.0" y="567.4">oransI_2019.csv</tspan></text>
    </g>
    <g>
      <rect x="2960.0" y="526.0" width="180" height="62" rx="5" fill="#F5D576" stroke="#C4A030" stroke-width="2"/>
      <text text-anchor="middle" font-size="14" font-weight="bold" font-family="Segoe UI, Arial, sans-serif" fill="#333"><tspan x="3050.0" y="550.6">spatial_lag_model_</tspan><tspan x="3050.0" y="567.4">maximum_likelihood</tspan></text>
    </g>
    <g>
      <ellipse cx="3285.0" cy="557.0" rx="85" ry="32" fill="#6BB56A" stroke="#3D8B3D" stroke-width="1.5"/>
      <text text-anchor="middle" font-size="14" font-weight="bold" font-family="Segoe UI, Arial, sans-serif" fill="white"><tspan x="3285.0" y="550.6">spatial_lag_pm25</tspan><tspan x="3285.0" y="567.4">_on_gini_2019.cs</tspan></text>
    </g>
    <g>
      <rect x="3430.0" y="526.0" width="180" height="62" rx="5" fill="#F5D576" stroke="#C4A030" stroke-width="2"/>
      <text text-anchor="middle" font-size="14" font-weight="bold" font-family="Segoe UI, Arial, sans-serif" fill="#333"><tspan x="3520.0" y="550.6">spatial_w</tspan><tspan x="3520.0" y="567.4">eights_knn</tspan></text>
    </g>
    <g>
      <ellipse cx="3755.0" cy="557.0" rx="85" ry="32" fill="#6BB56A" stroke="#3D8B3D" stroke-width="1.5"/>
      <text text-anchor="middle" font-size="14" font-weight="bold" font-family="Segoe UI, Arial, sans-serif" fill="white"><tspan x="3755.0" y="550.6">ca_county_knn_w</tspan><tspan x="3755.0" y="567.4">eights_2019.gpkg</tspan></text>
    </g>
    <g>
      <rect x="3900.0" y="526.0" width="180" height="62" rx="5" fill="#F5D576" stroke="#C4A030" stroke-width="2"/>
      <text text-anchor="middle" font-size="14" font-weight="bold" font-family="Segoe UI, Arial, sans-serif" fill="#333"><tspan x="3990.0" y="550.6">spatial_error_mode</tspan><tspan x="3990.0" y="567.4">_maximum_likelihoo</tspan></text>
    </g>
    <g>
      <ellipse cx="4225.0" cy="557.0" rx="90" ry="35" fill="#6BB56A" stroke="#3D8B3D" stroke-width="2.5"/>
      <text text-anchor="middle" font-size="14" font-weight="bold" font-family="Segoe UI, Arial, sans-serif" fill="white"><tspan x="4225.0" y="550.6">spatial_error_pm</tspan><tspan x="4225.0" y="567.4">5_on_gini_2019.c</tspan></text>
    </g>
    <g>
      <ellipse cx="465" cy="905.0" rx="85" ry="32" fill="#6BA3D6" stroke="#2F74B5" stroke-width="1.5"/>
      <text text-anchor="middle" font-size="14" font-weight="bold" font-family="Segoe UI, Arial, sans-serif" fill="white"><tspan x="465" y="898.6">California_Urban</tspan><tspan x="465" y="915.4">l_Classification</tspan></text>
    </g>
    <g>
      <rect x="610.0" y="874.0" width="180" height="62" rx="5" fill="#F5D576" stroke="#C4A030" stroke-width="2"/>
      <text x="700.0" y="909.0" text-anchor="middle" font-size="14" font-weight="bold" font-family="Segoe UI, Arial, sans-serif" fill="#333">derive_column</text>
    </g>
    <g>
      <ellipse cx="935.0" cy="905.0" rx="85" ry="32" fill="#6BB56A" stroke="#3D8B3D" stroke-width="1.5"/>
      <text text-anchor="middle" font-size="14" font-weight="bold" font-family="Segoe UI, Arial, sans-serif" fill="white"><tspan x="935.0" y="898.6">urban_rural_w</tspan><tspan x="935.0" y="915.4">ith_geoid.csv</tspan></text>
    </g>
    <g>
      <rect x="1080.0" y="874.0" width="180" height="62" rx="5" fill="#F5D576" stroke="#C4A030" stroke-width="2"/>
      <text x="1170.0" y="909.0" text-anchor="middle" font-size="14" font-weight="bold" font-family="Segoe UI, Arial, sans-serif" fill="#333">attribute_join</text>
    </g>
    <g>
      <ellipse cx="1405.0" cy="905.0" rx="85" ry="32" fill="#6BB56A" stroke="#3D8B3D" stroke-width="1.5"/>
      <text text-anchor="middle" font-size="14" font-weight="bold" font-family="Segoe UI, Arial, sans-serif" fill="white"><tspan x="1405.0" y="898.6">counties_pm25_gi</tspan><tspan x="1405.0" y="915.4">urbanrural_2019.</tspan></text>
    </g>
    <g>
      <rect x="1550.0" y="874.0" width="180" height="62" rx="5" fill="#F5D576" stroke="#C4A030" stroke-width="2"/>
      <text x="1640.0" y="909.0" text-anchor="middle" font-size="14" font-weight="bold" font-family="Segoe UI, Arial, sans-serif" fill="#333">derive_column</text>
    </g>
    <g>
      <ellipse cx="1875.0" cy="905.0" rx="85" ry="32" fill="#6BB56A" stroke="#3D8B3D" stroke-width="1.5"/>
      <text text-anchor="middle" font-size="14" font-weight="bold" font-family="Segoe UI, Arial, sans-serif" fill="white"><tspan x="1875.0" y="898.6">counties_pm25_gi</tspan><tspan x="1875.0" y="915.4">ural_interaction</tspan></text>
    </g>
    <g>
      <rect x="2020.0" y="874.0" width="180" height="62" rx="5" fill="#F5D576" stroke="#C4A030" stroke-width="2"/>
      <text text-anchor="middle" font-size="14" font-weight="bold" font-family="Segoe UI, Arial, sans-serif" fill="#333"><tspan x="2110.0" y="898.6">ordinary_least_squ</tspan><tspan x="2110.0" y="915.4">res_with_interacti</tspan></text>
    </g>
    <g>
      <ellipse cx="2345.0" cy="905.0" rx="85" ry="32" fill="#6BB56A" stroke="#3D8B3D" stroke-width="1.5"/>
      <text text-anchor="middle" font-size="14" font-weight="bold" font-family="Segoe UI, Arial, sans-serif" fill="white"><tspan x="2345.0" y="898.6">ols_pm25_gini_me</tspan><tspan x="2345.0" y="915.4">interaction_2019</tspan></text>
    </g>
    <g>
      <rect x="2490.0" y="874.0" width="180" height="62" rx="5" fill="#F5D576" stroke="#C4A030" stroke-width="2"/>
      <text text-anchor="middle" font-size="14" font-weight="bold" font-family="Segoe UI, Arial, sans-serif" fill="#333"><tspan x="2580.0" y="898.6">spatial_lag_model_</tspan><tspan x="2580.0" y="915.4">likelihood_with_in</tspan></text>
    </g>
    <g>
      <ellipse cx="2815.0" cy="905.0" rx="85" ry="32" fill="#6BB56A" stroke="#3D8B3D" stroke-width="1.5"/>
      <text text-anchor="middle" font-size="14" font-weight="bold" font-family="Segoe UI, Arial, sans-serif" fill="white"><tspan x="2815.0" y="898.6">spatial_lag_pm25</tspan><tspan x="2815.0" y="915.4">tro_interaction_</tspan></text>
    </g>
    <g>
      <rect x="2960.0" y="874.0" width="180" height="62" rx="5" fill="#F5D576" stroke="#C4A030" stroke-width="2"/>
      <text text-anchor="middle" font-size="14" font-weight="bold" font-family="Segoe UI, Arial, sans-serif" fill="#333"><tspan x="3050.0" y="898.6">groupwise_spearma</tspan><tspan x="3050.0" y="915.4">n_rank_correlation</tspan></text>
    </g>
    <g>
      <ellipse cx="3285.0" cy="905.0" rx="90" ry="35" fill="#6BB56A" stroke="#3D8B3D" stroke-width="2.5"/>
      <text text-anchor="middle" font-size="14" font-weight="bold" font-family="Segoe UI, Arial, sans-serif" fill="white"><tspan x="3285.0" y="898.6">pm25_gini_spearm</tspan><tspan x="3285.0" y="915.4">_by_metro_2019.c</tspan></text>
    </g>
    <path d="M3045.0,241.0 C3045.0,383.5 1640.0,486.0 1640.0,526.0" fill="none" stroke="#E67E22" stroke-width="2" stroke-dasharray="8,4" marker-end="url(#mb_arrow_orange)"/>
    <path d="M3515.0,241.0 C3515.0,383.5 2580.0,486.0 2580.0,526.0" fill="none" stroke="#E67E22" stroke-width="2" stroke-dasharray="8,4" marker-end="url(#mb_arrow_orange)"/>
    <path d="M3515.0,241.0 C3515.0,383.5 3050.0,486.0 3050.0,526.0" fill="none" stroke="#E67E22" stroke-width="2" stroke-dasharray="8,4" marker-end="url(#mb_arrow_orange)"/>
    <path d="M1875.0,589.0 C1875.0,731.5 1170.0,834.0 1170.0,874.0" fill="none" stroke="#E67E22" stroke-width="2" stroke-dasharray="8,4" marker-end="url(#mb_arrow_orange)"/>
    <path d="M3515.0,241.0 C3515.0,557.5 2580.0,834.0 2580.0,874.0" fill="none" stroke="#E67E22" stroke-width="2" stroke-dasharray="8,4" marker-end="url(#mb_arrow_orange)"/>
    <line x1="4615.0" y1="557.0" x2="4670.0" y2="557.0" stroke="#555" stroke-width="2" marker-end="url(#mb_arrow)"/>
    <line x1="4860.0" y1="557.0" x2="4920.0" y2="557.0" stroke="#555" stroke-width="2" marker-end="url(#mb_arrow)"/>
    
    <path d="M4070.0,209.0 C4247.5,209.0 4247.5,557.0 4425.0,557.0" fill="none" stroke="#555" stroke-width="2" marker-end="url(#mb_arrow)"/>
    <line x1="4310.0" y1="557.0" x2="4425.0" y2="557.0" stroke="#555" stroke-width="2" marker-end="url(#mb_arrow)"/>
    <path d="M3370.0,905.0 C3897.5,905.0 3897.5,557.0 4425.0,557.0" fill="none" stroke="#555" stroke-width="2" marker-end="url(#mb_arrow)"/>
    <g>
      <rect x="4425.0" y="527.0" width="190" height="60" rx="5" fill="#F5D576" stroke="#C4A030" stroke-width="2"/>
      <text x="4520.0" y="561.0" text-anchor="middle" font-size="14" font-weight="bold" font-family="Segoe UI, Arial, sans-serif" fill="#333">Result Collation</text>
    </g>
    <g>
      <rect x="4670.0" y="527.0" width="190" height="60" rx="5" fill="#8E44AD" stroke="#6C3483" stroke-width="2"/>
      <text x="4765.0" y="561.0" text-anchor="middle" font-size="14" font-weight="bold" font-family="Segoe UI, Arial, sans-serif" fill="white">Results Analysis</text>
    </g>
    
    <g>
      <ellipse cx="5010.0" cy="557.0" rx="90" ry="32" fill="#C0392B" stroke="#922B21" stroke-width="2.5"/>
      <text x="5010.0" y="561.0" text-anchor="middle" font-size="14" font-weight="bold" font-family="Segoe UI, Arial, sans-serif" fill="white">Manuscript</text>
    </g>
    </g>
  </svg>
